<?xml version="1.0" encoding="UTF-8"?>
<svg xmlns="http://www.w3.org/2000/svg" xmlns:xlink="http://www.w3.org/1999/xlink" width="375pt" height="374.999991pt" viewBox="0 0 375 374.999991" version="1.2">
<g id="surface1">
<path style=" stroke:none;fill-rule:nonzero;fill:rgb(67.449951%,67.059326%,69.40918%);fill-opacity:1;" d="M 318.75 6.25 L 56.25 6.25 C 28.636719 6.25 6.25 28.636719 6.25 56.25 L 6.25 318.75 C 6.25 346.363281 28.636719 368.75 56.25 368.75 L 318.75 368.75 C 346.363281 368.75 368.75 346.363281 368.75 318.75 L 368.75 56.25 C 368.75 28.636719 346.363281 6.25 318.75 6.25 Z M 162.5 231.25 L 162.5 281.25 C 162.5 305.414062 142.914062 325 118.75 325 L 93.75 325 C 69.585938 325 50 305.414062 50 281.25 L 50 231.25 C 50 193.28125 80.78125 162.5 118.75 162.5 C 142.914062 162.5 162.5 182.085938 162.5 206.25 Z M 81.25 118.75 C 74.34375 118.75 68.75 113.15625 68.75 106.25 L 68.75 56.25 C 68.75 49.34375 74.34375 43.75 81.25 43.75 L 293.75 43.75 C 300.65625 43.75 306.25 49.34375 306.25 56.25 L 306.25 106.25 C 306.25 113.15625 300.65625 118.75 293.75 118.75 Z M 325 231.25 L 325 281.25 C 325 305.414062 305.414062 325 281.25 325 L 256.25 325 C 232.085938 325 212.5 305.414062 212.5 281.25 L 212.5 206.25 C 212.5 182.085938 232.085938 162.5 256.25 162.5 C 294.21875 162.5 325 193.28125 325 231.25 Z M 325 231.25 "/>
<path style=" stroke:none;fill-rule:nonzero;fill:rgb(23.919678%,60.389709%,88.62915%);fill-opacity:1;" d="M 93.75 325 L 118.75 325 C 142.914062 325 162.5 305.414062 162.5 281.25 L 50 281.25 C 50 305.414062 69.585938 325 93.75 325 Z M 93.75 325 "/>
<path style=" stroke:none;fill-rule:nonzero;fill:rgb(23.919678%,60.389709%,88.62915%);fill-opacity:1;" d="M 50 256.25 L 162.5 256.25 L 162.5 281.25 L 50 281.25 Z M 50 256.25 "/>
<path style=" stroke:none;fill-rule:nonzero;fill:rgb(23.919678%,60.389709%,88.62915%);fill-opacity:1;" d="M 50 231.25 L 162.5 231.25 L 162.5 256.25 L 50 256.25 Z M 50 231.25 "/>
<path style=" stroke:none;fill-rule:nonzero;fill:rgb(23.919678%,60.389709%,88.62915%);fill-opacity:1;" d="M 118.75 162.5 C 80.78125 162.5 50 193.28125 50 231.25 L 162.5 231.25 L 162.5 206.25 C 162.5 182.085938 142.914062 162.5 118.75 162.5 Z M 118.75 162.5 "/>
<path style=" stroke:none;fill-rule:nonzero;fill:rgb(23.919678%,60.389709%,88.62915%);fill-opacity:1;" d="M 212.5 231.25 L 325 231.25 L 325 256.25 L 212.5 256.25 Z M 212.5 231.25 "/>
<path style=" stroke:none;fill-rule:nonzero;fill:rgb(23.919678%,60.389709%,88.62915%);fill-opacity:1;" d="M 256.25 325 L 281.25 325 C 305.414062 325 325 305.414062 325 281.25 L 212.5 281.25 C 212.5 305.414062 232.085938 325 256.25 325 Z M 256.25 325 "/>
<path style=" stroke:none;fill-rule:nonzero;fill:rgb(23.919678%,60.389709%,88.62915%);fill-opacity:1;" d="M 256.25 162.5 C 232.085938 162.5 212.5 182.085938 212.5 206.25 L 212.5 231.25 L 325 231.25 C 325 193.28125 294.21875 162.5 256.25 162.5 Z M 256.25 162.5 "/>
<path style=" stroke:none;fill-rule:nonzero;fill:rgb(23.919678%,60.389709%,88.62915%);fill-opacity:1;" d="M 212.5 256.25 L 325 256.25 L 325 281.25 L 212.5 281.25 Z M 212.5 256.25 "/>
<path style=" stroke:none;fill-rule:nonzero;fill:rgb(76.078796%,87.449646%,96.469116%);fill-opacity:1;" d="M 306.25 106.25 L 306.25 56.25 C 306.25 49.34375 300.65625 43.75 293.75 43.75 L 81.25 43.75 C 74.34375 43.75 68.75 49.34375 68.75 56.25 L 68.75 106.25 C 68.75 113.15625 74.34375 118.75 81.25 118.75 L 187.5 118.75 L 187.5 81.25 L 187.5 118.75 L 293.75 118.75 C 300.65625 118.75 306.25 113.15625 306.25 106.25 Z M 131.25 81.25 L 150 87.5 Z M 150 56.25 L 162.5 68.75 Z M 187.5 62.5 L 187.5 43.75 Z M 225 56.25 L 212.5 68.75 Z M 225 87.5 L 243.75 81.25 Z M 225 87.5 "/>
<path style=" stroke:none;fill-rule:nonzero;fill:rgb(0%,0%,0%);fill-opacity:1;" d="M 318.75 0 L 56.25 0 C 25.230469 0 0 25.230469 0 56.25 L 0 318.75 C 0 349.769531 25.230469 375 56.25 375 L 318.75 375 C 349.769531 375 375 349.769531 375 318.75 L 375 56.25 C 375 25.230469 349.769531 0 318.75 0 Z M 362.5 318.75 C 362.5 342.867188 342.867188 362.5 318.75 362.5 L 56.25 362.5 C 32.132812 362.5 12.5 342.867188 12.5 318.75 L 12.5 56.25 C 12.5 32.132812 32.132812 12.5 56.25 12.5 L 318.75 12.5 C 342.867188 12.5 362.5 32.132812 362.5 56.25 Z M 362.5 318.75 "/>
<path style=" stroke:none;fill-rule:nonzero;fill:rgb(0%,0%,0%);fill-opacity:1;" d="M 118.75 156.25 C 77.394531 156.25 43.75 189.894531 43.75 231.25 L 43.75 281.25 C 43.75 308.820312 66.179688 331.25 93.75 331.25 L 118.75 331.25 C 146.320312 331.25 168.75 308.820312 168.75 281.25 L 168.75 206.25 C 168.75 178.679688 146.320312 156.25 118.75 156.25 Z M 118.75 318.75 L 93.75 318.75 C 75.207031 318.75 59.804688 305.207031 56.8125 287.5 L 155.6875 287.5 C 152.695312 305.207031 137.292969 318.75 118.75 318.75 Z M 156.25 275 L 56.25 275 L 56.25 262.5 L 156.25 262.5 Z M 156.25 250 L 56.25 250 L 56.25 237.5 L 156.25 237.5 Z M 156.25 225 L 56.570312 225 C 59.71875 193.460938 86.398438 168.75 118.75 168.75 C 139.429688 168.75 156.25 185.570312 156.25 206.25 Z M 156.25 225 "/>
<path style=" stroke:none;fill-rule:nonzero;fill:rgb(0%,0%,0%);fill-opacity:1;" d="M 256.25 156.25 C 228.679688 156.25 206.25 178.679688 206.25 206.25 L 206.25 281.25 C 206.25 308.820312 228.679688 331.25 256.25 331.25 L 281.25 331.25 C 308.820312 331.25 331.25 308.820312 331.25 281.25 L 331.25 231.25 C 331.25 189.894531 297.605469 156.25 256.25 156.25 Z M 281.25 318.75 L 256.25 318.75 C 237.707031 318.75 222.304688 305.207031 219.3125 287.5 L 318.1875 287.5 C 315.195312 305.207031 299.792969 318.75 281.25 318.75 Z M 318.75 275 L 218.75 275 L 218.75 262.5 L 318.75 262.5 Z M 318.75 250 L 218.75 250 L 218.75 237.5 L 318.75 237.5 Z M 218.75 225 L 218.75 206.25 C 218.75 185.570312 235.570312 168.75 256.25 168.75 C 288.601562 168.75 315.289062 193.460938 318.429688 225 Z M 218.75 225 "/>
<path style=" stroke:none;fill-rule:nonzero;fill:rgb(0%,0%,0%);fill-opacity:1;" d="M 81.25 125 L 293.75 125 C 304.085938 125 312.5 116.585938 312.5 106.25 L 312.5 56.25 C 312.5 45.914062 304.085938 37.5 293.75 37.5 L 81.25 37.5 C 70.914062 37.5 62.5 45.914062 62.5 56.25 L 62.5 106.25 C 62.5 116.585938 70.914062 125 81.25 125 Z M 75 56.25 C 75 52.800781 77.800781 50 81.25 50 L 181.25 50 L 181.25 62.5 L 193.75 62.5 L 193.75 50 L 293.75 50 C 297.199219 50 300 52.800781 300 56.25 L 300 106.25 C 300 109.699219 297.199219 112.5 293.75 112.5 L 193.75 112.5 L 193.75 81.25 L 181.25 81.25 L 181.25 112.5 L 81.25 112.5 C 77.800781 112.5 75 109.699219 75 106.25 Z M 75 56.25 "/>
<path style=" stroke:none;fill-rule:nonzero;fill:rgb(0%,0%,0%);fill-opacity:1;" d="M 145.582031 60.671875 L 154.421875 51.832031 L 166.917969 64.328125 L 158.078125 73.167969 Z M 145.582031 60.671875 "/>
<path style=" stroke:none;fill-rule:nonzero;fill:rgb(0%,0%,0%);fill-opacity:1;" d="M 129.273438 87.179688 L 133.226562 75.328125 L 151.972656 81.574219 L 148.023438 93.429688 Z M 129.273438 87.179688 "/>
<path style=" stroke:none;fill-rule:nonzero;fill:rgb(0%,0%,0%);fill-opacity:1;" d="M 208.082031 64.328125 L 220.578125 51.832031 L 229.417969 60.671875 L 216.921875 73.167969 Z M 208.082031 64.328125 "/>
<path style=" stroke:none;fill-rule:nonzero;fill:rgb(0%,0%,0%);fill-opacity:1;" d="M 223.027344 81.578125 L 241.773438 75.328125 L 245.726562 87.183594 L 226.976562 93.429688 Z M 223.027344 81.578125 "/>
</g>
</svg>
